# xmcd CD database file
#
# Track frame offsets:
#	150
#	22127
#	40205
#	55427
#	77025
#	94885
#	118427
#	141862
#	163352
#	203627
#	225077
#	250725
#	273152
#	293475
#	317442
#
# Disc length: 4510 seconds
#
# Revision: 0
# Processed by: cddbd v1.5.1PL2 Copyright (c) Steve Scherf et al.
# Submitted via: CDex 1.51
#
DISCID=d0119c0f
DTITLE=Various Artist - Smooth Jazz On A Summer's Day. CD1
DYEAR=2001
DGENRE=Jazz
TTITLE0=PETER WHITE - Venice Beach
TTITLE1=FRANK McCOMB - (They're Gonna Be) Looking At You
TTITLE2=GROVER WASHINGTON,JR. - Soulful Strut (The Top Down Version)
TTITLE3=LUTHER VANDROSS - Give Me The Reason
TTITLE4=MARTIN TAYLOR - Midnight At The Oasis
TTITLE5=KYLE EASTWOOD - Why Can't We Live Together
TTITLE6=DON LAKA - Speak Softly
TTITLE7=SARAH VAUGHAN - Nothing Will Be As It Was
TTITLE8=HERBIE HANCOCK - I Thought It Was You
TTITLE9=SANTANA - Samba Pa Ti
TTITLE10=THE ISLEY BROTHERS - Between The Sheets
TTITLE11=The Groove
TTITLE12=LONNIE LISTON SMITH - Exotic Mysteries
TTITLE13=MARVIN GAYE - Midnight Lady
TTITLE14=KIRK WHALUM - Peaceful Hideaway
EXTD=YEAR: 2001
EXTT0=
EXTT1=
EXTT2=
EXTT3=
EXTT4=
EXTT5=
EXTT6=
EXTT7=
EXTT8=
EXTT9=
EXTT10=
EXTT11=
EXTT12=
EXTT13=
EXTT14=
PLAYORDER=
